<svg width="24.506226" height="20.416687" viewBox="0 0 24.5062 20.4167" fill="none" xmlns="http://www.w3.org/2000/svg" xmlns:xlink="http://www.w3.org/1999/xlink">
	<desc>
			Created with Pixso.
	</desc>
	<defs/>
	<path d="M24.1165 2.37506C23.572 2.61694 23.0068 2.80768 22.4268 2.9458C23.0659 2.33759 23.5464 1.57678 23.8174 0.7276C23.8948 0.485229 23.632 0.275574 23.4134 0.405396C22.6065 0.884705 21.7374 1.24432 20.8301 1.4743C20.7775 1.48761 20.7232 1.49438 20.6687 1.49438C20.5034 1.49438 20.3428 1.43292 20.2164 1.32141C19.2511 0.469299 18.0096 0 16.7206 0C16.1628 0 15.5997 0.0870972 15.0468 0.258789C13.3337 0.791016 12.0118 2.20636 11.5972 3.95251C11.4416 4.60754 11.3995 5.26312 11.4719 5.901C11.4802 5.9743 11.4456 6.02551 11.4243 6.0495C11.3868 6.09155 11.3337 6.11566 11.2785 6.11566C11.2723 6.11566 11.2661 6.11536 11.2598 6.11475C7.50983 5.76581 4.12823 3.95636 1.73804 1.01978C1.61615 0.869995 1.38239 0.888367 1.28522 1.05524C0.817139 1.85956 0.569824 2.77942 0.569824 3.71552C0.569824 5.15002 1.14526 6.50195 2.14478 7.48749C1.72443 7.3877 1.31763 7.23047 0.939697 7.02026C0.756897 6.91852 0.531921 7.04926 0.529358 7.25873C0.503174 9.38983 1.74896 11.2861 3.61511 12.14C3.57758 12.1409 3.53998 12.1414 3.50232 12.1414C3.20654 12.1414 2.90698 12.1127 2.61218 12.0563C2.40631 12.0169 2.23334 12.2125 2.29724 12.4125C2.90302 14.3066 4.53125 15.7027 6.4798 16.0197C4.86261 17.1069 2.97943 17.6805 1.01935 17.6805L0.408325 17.6801C0.220032 17.6801 0.060791 17.803 0.0128174 17.9857C-0.0344238 18.1656 0.0526123 18.3553 0.213135 18.4489C2.42181 19.7363 4.94116 20.4167 7.49982 20.4167C9.7395 20.4167 11.8345 19.9715 13.7268 19.0936C15.4615 18.2888 16.9944 17.1383 18.2829 15.6741C19.4833 14.3102 20.4219 12.7357 21.0727 10.9944C21.6931 9.33453 22.021 7.56342 22.021 5.87256L22.021 5.79199C22.0209 5.52045 22.1436 5.26501 22.3574 5.09113C23.1691 4.43103 23.876 3.65405 24.4582 2.78174C24.6119 2.55139 24.3694 2.2627 24.1165 2.37506Z" fill="#FFFFFF" fill-opacity="1.000000" fill-rule="nonzero"/>
</svg>
